<?xml version="1.0" encoding="utf-8"?>
<!-- Generator: Adobe Illustrator 24.1.2, SVG Export Plug-In . SVG Version: 6.00 Build 0)  -->
<svg version="1.1" id="Layer_1" xmlns="http://www.w3.org/2000/svg" xmlns:xlink="http://www.w3.org/1999/xlink" x="0px" y="0px"
	 viewBox="0 0 680.31 680.31" style="enable-background:new 0 0 680.31 680.31;" xml:space="preserve">
<style type="text/css">
	.st0{fill:#FBB03B;stroke:#000000;stroke-miterlimit:10;}
</style>
<path class="st0" d="M5.27,250.84l32.54-146.83c0,0,51.59-8.73,54.76-8.73c3.17,0,98.41-18.25,102.38-19.05
	C198.92,75.44,264,44.49,264,44.49l23.81-20.63l96.83,14.29l54.76,27.78l49.21,63.49l35.71,28.57c0,0,56.35,76.98,61.11,84.13
	c4.76,7.14,16.67,56.35,16.67,56.35s4.76,83.33,7.14,88.89c2.38,5.56,8.73,93.65,9.52,96.83c0.79,3.17-15.08,59.52-17.46,59.52
	c-2.38,0-38.1,19.84-42.06,24.6s-82.54,44.44-82.54,44.44H343.37h-111.9l-112.7-88.1c0,0-10.32-78.57-15.08-92.86
	c-4.76-14.29-28.57-49.21-34.13-66.67S22.73,251.63,22.73,251.63L5.27,250.84z"/>
<g>
	<g>
		<path d="M193.69,215.3c-6.3-2.24-13.64-1.31-19.19,2.43c-2.85,1.92-5.32,4.52-6.53,7.78c-1.23,3.3-0.47,6.85,1.5,9.69
			c2.01,2.88,4.8,5.09,7.57,7.19c3,2.28,6.16,4.35,9.45,6.18c6.51,3.61,13.57,6.39,20.84,8.02c12.31,2.76,27.68,1.43,33.86-11.3
			c1.59-3.27,2.5-6.82,3.02-10.41c0.53-3.64,0.76-7.38-0.58-10.88c-2.39-6.27-8.12-10.54-14.31-12.65
			c-7.68-2.61-16.13-2.43-24.14-2.81c-4.39-0.21-8.78-0.42-13.16-0.63c-3.65-0.17-7.96-0.5-10.61,2.54
			c-1.07,1.22-1.7,2.78-1.51,4.41c0.23,1.89,3.23,1.92,3,0c-0.48-4,4.75-4.15,7.43-4.04c3.79,0.16,7.59,0.36,11.38,0.54
			c7.31,0.35,14.86,0.23,22.07,1.63c5.95,1.16,11.98,3.78,15.46,8.98c3.67,5.48,2.55,12.58,0.64,18.53
			c-1.8,5.62-5.48,10.2-11.03,12.44c-5.21,2.1-11.1,2.24-16.61,1.48c-12.82-1.75-25.42-7.87-35.4-16c-2.54-2.07-5.41-4.52-6.28-7.82
			c-0.91-3.45,1.19-6.7,3.66-8.93c4.99-4.5,12.38-5.74,18.65-3.51C194.71,218.84,195.5,215.94,193.69,215.3L193.69,215.3z"/>
	</g>
</g>
<g>
	<g>
		<path d="M215.63,229.72c-1.9,1.23-2.91,3.78-2.11,5.96c0.21,0.57,0.62,0.99,1.25,1.07c0.57,0.08,1.21-0.19,1.49-0.72
			c0.56-1.05,0.86-2.25,0.8-3.44c-0.04-0.78-0.66-1.54-1.5-1.5c-0.78,0.03-1.54,0.66-1.5,1.5c0.02,0.33,0,0.65-0.04,0.98
			c0.02-0.13,0.04-0.27,0.05-0.4c-0.07,0.45-0.19,0.88-0.36,1.3c0.05-0.12,0.1-0.24,0.15-0.36c-0.06,0.14-0.13,0.27-0.2,0.41
			c0.91,0.12,1.83,0.24,2.74,0.36c-0.09-0.24-0.15-0.49-0.19-0.74c0.02,0.13,0.04,0.27,0.05,0.4c-0.04-0.31-0.04-0.63,0-0.94
			c-0.02,0.13-0.04,0.27-0.05,0.4c0.05-0.33,0.14-0.66,0.26-0.97c-0.05,0.12-0.1,0.24-0.15,0.36c0.13-0.29,0.28-0.56,0.47-0.82
			c-0.08,0.1-0.16,0.2-0.23,0.3c0.18-0.23,0.39-0.44,0.62-0.63c-0.1,0.08-0.2,0.16-0.3,0.23c0.08-0.06,0.16-0.12,0.24-0.17
			c0.33-0.21,0.58-0.52,0.69-0.9c0.1-0.36,0.05-0.84-0.15-1.16C217.26,229.6,216.33,229.26,215.63,229.72L215.63,229.72z"/>
	</g>
</g>
<g>
	<g>
		<path d="M395.27,203.73c-13.84,2.66-23.77,16.93-24.63,30.51c-0.25,3.89,0.59,7.81,3.01,10.93c2.19,2.81,5.3,4.65,8.57,5.94
			c7.02,2.77,15.13,3.45,22.6,2.94c7.91-0.54,15.68-2.57,22.82-6.01c6.66-3.21,14.04-7.83,17.18-14.83
			c2.71-6.05,2.23-12.96-0.34-18.98c-2.73-6.37-7.74-11.37-14.01-14.26c-6.99-3.22-14.89-3.99-22.48-3.05
			c-6.44,0.8-14.61,2.44-18.41,8.34c-0.86,1.33-1.29,2.81-1.47,4.38c-0.21,1.92,2.79,1.9,3,0c0.68-6.11,8.75-8.23,13.69-9.19
			c6.73-1.31,13.87-1.3,20.46,0.73c6.15,1.89,11.57,5.64,14.92,11.2c2.94,4.88,4.35,10.93,2.98,16.55
			c-1.67,6.79-7.42,11.17-13.19,14.5c-6.16,3.56-12.98,5.92-20,7.05c-7.07,1.14-14.41,0.96-21.4-0.6
			c-6.05-1.34-12.95-4.1-14.59-10.75c-0.86-3.47-0.26-7.19,0.69-10.58c0.84-3.02,2.08-5.91,3.69-8.61
			c3.08-5.18,7.63-9.75,13.29-12.03c1.43-0.57,2.91-0.99,4.42-1.28C397.96,206.26,397.16,203.36,395.27,203.73L395.27,203.73z"/>
	</g>
</g>
<g>
	<g>
		<path d="M409.62,221.66c-3.11-0.75-6.25,0.71-8.09,3.23c-0.43,0.58-0.74,1.25-0.98,1.93c-0.32,0.94-0.64,2.35,0.26,3.04
			c1.48,1.14,3.75,0.67,4.72-0.92c0.58-0.96,0.51-2.17-0.02-3.13c-0.55-1-1.54-1.56-2.65-1.66c-0.78-0.07-1.53,0.74-1.5,1.5
			c0.04,0.87,0.66,1.43,1.5,1.5c-0.24-0.04-0.28-0.04-0.12-0.01c0.15,0.05,0.12,0.03-0.09-0.06c0,0.02,0.26,0.13,0.24,0.14
			c-0.18-0.14-0.2-0.16-0.08-0.05c0.02,0.02,0.04,0.05,0.07,0.07c0.1,0.12,0.09,0.09-0.05-0.08c0.04,0.05,0.07,0.11,0.1,0.16
			c0.16,0.22-0.06-0.29,0-0.01c0.08,0.35-0.02,0.01,0.02-0.03c0.01,0.06,0.01,0.13,0,0.19c-0.01,0.16-0.01,0.13,0.02-0.12
			c-0.01,0.03-0.02,0.06-0.02,0.09c-0.05,0.16-0.04,0.12,0.05-0.1c-0.02,0.04-0.04,0.08-0.07,0.11c-0.06,0.09-0.03,0.05,0.1-0.13
			c-0.06,0-0.27,0.34-0.11,0.12c0.11-0.08,0.11-0.09,0-0.02c-0.05,0.03-0.1,0.06-0.16,0.08c0.21-0.08,0.26-0.11,0.15-0.07
			c-0.04,0.01-0.09,0.03-0.13,0.04c-0.06,0.01-0.12,0.03-0.18,0.04c0.24-0.03,0.29-0.04,0.18-0.03c-0.04,0-0.09,0-0.13,0
			c-0.16-0.01-0.12,0,0.13,0.02c0,0-0.25-0.07-0.26-0.07c0.22,0.1,0.26,0.11,0.12,0.04c-0.05-0.03-0.1-0.06-0.15-0.1
			c0.25,0.43,0.5,0.86,0.74,1.3c0.01-0.1,0.02-0.2,0.02-0.3c0.02-0.31-0.08,0.33,0.01-0.05c0.05-0.19,0.09-0.39,0.15-0.58
			c0.03-0.11,0.08-0.22,0.11-0.33c0.1-0.28-0.14,0.28,0-0.01c0.09-0.18,0.18-0.35,0.28-0.53c0.1-0.17,0.21-0.33,0.33-0.5
			c0.2-0.28-0.22,0.25,0.01-0.01c0.07-0.08,0.13-0.15,0.2-0.23c0.13-0.15,0.28-0.29,0.42-0.43c0.07-0.07,0.15-0.13,0.23-0.2
			c0.05-0.04,0.1-0.09,0.16-0.13c-0.16,0.12-0.19,0.15-0.1,0.08c0.35-0.24,0.69-0.46,1.07-0.64c0.03-0.01,0.06-0.03,0.09-0.04
			c0.15-0.07,0.12-0.06-0.08,0.03c0.03-0.05,0.23-0.09,0.28-0.11c0.19-0.07,0.38-0.12,0.57-0.17c0.11-0.03,0.52-0.04,0.58-0.11
			c-0.24,0.03-0.27,0.04-0.1,0.02c0.03,0,0.07-0.01,0.1-0.01c0.1-0.01,0.2-0.01,0.3-0.01c0.2,0,0.4,0.01,0.59,0.02
			c0.31,0.01-0.34-0.07,0.05,0.01c0.12,0.02,0.23,0.05,0.34,0.07c0.76,0.18,1.66-0.24,1.85-1.05
			C410.85,222.73,410.44,221.85,409.62,221.66L409.62,221.66z"/>
	</g>
</g>
<g>
	<g>
		<path d="M216.93,178.86c11.18,10.14,23.89,18.52,37.64,24.75c1.75,0.79,3.27-1.79,1.51-2.59c-13.52-6.12-26.03-14.31-37.03-24.28
			C217.62,175.45,215.49,177.56,216.93,178.86L216.93,178.86z"/>
	</g>
</g>
<g>
	<g>
		<path d="M329.64,210.68c-1.64-4.46,2.36-8.59,5.21-11.52c3.36-3.46,6.82-6.82,10.38-10.08c7.14-6.52,14.67-12.61,22.56-18.2
			c4.48-3.18,9.07-6.2,13.75-9.07c1.64-1.01,0.14-3.6-1.51-2.59c-17.45,10.68-33.57,23.56-47.77,38.3
			c-3.47,3.61-7.48,8.64-5.52,13.96C327.41,213.27,330.31,212.49,329.64,210.68L329.64,210.68z"/>
	</g>
</g>
<g>
	<g>
		<path d="M338.65,336.55c-27.67-10.15-58.3-11.75-86.93-4.78c-13.89,3.38-28.16,8.55-39.75,17.1c-10.74,7.92-18.42,19.1-22.6,31.73
			c-9.02,27.25-0.55,57.5,15.5,80.37c7.56,10.78,16.94,20.23,27.68,27.85c11.33,8.04,24.15,13.79,37.46,17.67
			c27.84,8.11,57.53,8.63,86.31,8.03c30.37-0.64,60.98-3.79,90.17-12.57c14.1-4.24,28.61-9.47,40.93-17.68
			c10.97-7.31,19.74-17.66,25.08-29.73c11.09-25.06,5.95-54.93-12.67-75.01c-18.16-19.58-45.1-28.26-69.67-36.66
			c-29.26-10.01-60.02-18.86-91.26-17.24c-7.46,0.39-14.88,1.4-22.16,3.08c-1.88,0.43-1.08,3.32,0.8,2.89
			c29.84-6.85,60.63-1.47,89.54,7.02c13.87,4.08,27.59,8.78,41.13,13.83c11.86,4.42,23.62,9.44,34.22,16.43
			c10.75,7.09,19.99,16.36,25.83,27.93c6.06,11.99,8.47,25.93,6.53,39.24c-1.83,12.55-7.39,24.54-15.72,34.09
			c-9.29,10.65-21.74,17.23-34.69,22.41c-27.47,10.99-56.91,16.09-86.33,18.05c-14.54,0.97-29.13,1.22-43.7,0.99
			c-13.95-0.22-27.94-0.99-41.73-3.17c-13.69-2.16-27.27-5.69-39.9-11.46c-12-5.48-22.97-12.96-32.36-22.24
			c-19.22-19-32.54-45.88-31.65-73.3c0.43-13.13,4.43-26.17,12.02-36.94c8.06-11.44,20.08-18.74,32.9-23.81
			c26.53-10.5,56.14-12.9,84.04-7.02c6.85,1.44,13.59,3.39,20.17,5.8C339.67,340.11,340.46,337.21,338.65,336.55L338.65,336.55z"/>
	</g>
</g>
<g>
	<g>
		<path d="M237.29,346.57c9.56,10.76,20.16,20.55,31.61,29.28c0.79,0.6,1.97-0.06,2.2-0.9c2.92-10.34,8.53-19.75,16.23-27.23
			c-0.71,0-1.41,0-2.12,0c6.34,7.8,13.01,15.35,19.99,22.59c1.74,1.81,3.5,3.61,5.29,5.37c1.49,1.46,3.15,2.83,5.08,3.68
			c1.8,0.79,3.82,1.07,5.65,0.21c1.88-0.87,2.93-2.62,3.76-4.43c1.85-4.03,4.06-7.84,6.93-11.23c1.43-1.69,2.98-3.28,4.64-4.75
			c1.42-1.26,3.68-3.58,5.79-2.87c1.8,0.61,3.16,3.03,4.33,4.41c1.45,1.7,2.95,3.36,4.49,4.97c3.09,3.23,6.35,6.29,9.78,9.16
			c7.7,6.46,16.16,11.96,25.2,16.36c0.68,0.33,1.69,0.24,2.05-0.54c3.27-7.02,9.69-11.49,16.19-15.27
			c6.78-3.94,14.01-7.31,19.97-12.48c3.2-2.78,5.9-6.14,7.58-10.04c0.76-1.75-1.83-3.28-2.59-1.51c-3.06,7.1-9.35,11.64-15.81,15.44
			c-6.78,3.98-14.03,7.33-20.08,12.43c-3.26,2.74-6.05,6.05-7.85,9.93c0.68-0.18,1.37-0.36,2.05-0.54
			c-8.04-3.91-15.68-8.69-22.65-14.3c-3.43-2.75-6.71-5.7-9.82-8.81c-3.09-3.1-5.84-6.45-8.73-9.72c-1.36-1.54-3.14-2.77-5.29-2.59
			c-2.26,0.19-4.12,1.64-5.79,3.04c-3.39,2.84-6.35,6.18-8.83,9.84c-1.2,1.78-2.28,3.64-3.23,5.57c-0.81,1.65-1.43,4.12-3.12,5.11
			c-1.75,1.02-3.87-0.2-5.32-1.23c-1.89-1.34-3.47-3.14-5.09-4.79c-7.88-8.01-15.37-16.4-22.46-25.12c-0.52-0.64-1.59-0.52-2.12,0
			c-8.06,7.83-13.95,17.74-17.01,28.56c0.73-0.3,1.47-0.6,2.2-0.9c-11.24-8.57-21.62-18.24-31-28.81
			C238.13,343,236.01,345.13,237.29,346.57L237.29,346.57z"/>
	</g>
</g>
<g>
	<g>
		<path d="M256.71,491.27c7.68-6.15,15.98-11.53,24.71-16.07c4.37-2.27,8.86-4.34,13.43-6.16c2.25-0.9,4.52-1.74,6.8-2.52
			c1.07-0.37,2.42-1.02,3.58-0.79c0.93,0.18,1.43,0.98,1.77,1.8c0.73,1.79,0.87,3.79,1.43,5.64c0.61,1.99,1.44,3.93,2.46,5.74
			c2.09,3.7,4.99,6.9,8.44,9.36c1.8,1.28,3.93,2.68,6.22,2.71c2.17,0.03,3.92-1.34,5.27-2.92c2.74-3.21,5.18-6.7,7.73-10.05
			c4.95-6.5,10.28-13.14,17.42-17.34c1.82-1.07,3.78-2.08,5.82-2.66c2.42-0.69,3.56,0.7,4.53,2.72c0.96,2.02,1.74,4.12,2.73,6.13
			c1.06,2.15,2.23,4.24,3.51,6.27c1.31,2.08,2.73,4.08,4.23,6.01c1.28,1.65,2.73,3.97,4.74,4.78c2.11,0.85,3.89-0.49,5.1-2.13
			c1.33-1.81,2.57-3.65,4.01-5.38c5.72-6.86,12.87-12.45,20.9-16.36c1.89-0.92,4.56-2.58,6.72-2.25c1.92,0.3,3.09,2.35,4.01,3.85
			c2.13,3.5,4.24,7.02,6.57,10.39c4.47,6.45,9.9,12.85,17.24,16.08c1.78,0.79,3.62,1.39,5.53,1.78c1.88,0.38,2.69-2.51,0.8-2.89
			c-8.02-1.62-14.13-7.29-18.92-13.64c-2.48-3.29-4.69-6.78-6.84-10.29c-1.97-3.23-4.03-7.93-8.36-8.29
			c-2.38-0.2-4.71,1.03-6.82,1.99c-2.06,0.94-4.06,1.98-6.01,3.13c-3.88,2.3-7.54,5.01-10.87,8.04c-3.34,3.04-6.35,6.44-8.99,10.1
			c-0.59,0.82-1.1,1.73-1.78,2.49c-0.96,1.07-1.59,0.42-2.41-0.5c-1.61-1.8-3.08-3.73-4.45-5.71c-2.83-4.07-5.24-8.43-7.14-13.01
			c-0.72-1.73-1.42-3.57-2.78-4.92c-1.65-1.64-3.86-1.92-6.04-1.29c-8.09,2.35-14.68,8.69-19.95,14.97
			c-2.73,3.25-5.27,6.67-7.83,10.06c-1.29,1.71-2.58,3.41-3.92,5.07c-1.47,1.84-2.95,3.44-5.42,2.3c-3.81-1.74-7.12-5.05-9.39-8.51
			c-1.18-1.79-2.16-3.71-2.85-5.74c-0.66-1.93-0.91-3.96-1.51-5.9c-0.56-1.8-1.53-3.54-3.35-4.28c-2.36-0.97-4.91,0.19-7.15,0.98
			c-4.68,1.65-9.29,3.54-13.79,5.64c-8.9,4.15-17.41,9.15-25.35,14.94c-2,1.46-3.96,2.96-5.89,4.51
			C253.08,490.36,255.22,492.47,256.71,491.27L256.71,491.27z"/>
	</g>
</g>
</svg>
